# Blender v3.1.2 OBJ File: ''
# www.blender.org
o obj.001
v -0.866025 0.403292 0.500000
v -0.342020 0.403292 0.939693
v -0.353473 0.398659 0.971158
v -0.895024 0.398659 0.516742
v 0.000000 0.672536 -0.967800
v 0.622090 0.672536 -0.741378
v 0.642920 0.676918 -0.766203
v 0.000000 0.676918 -1.000206
v -0.622090 0.672536 -0.741378
v -0.642920 0.676918 -0.766203
v 0.342020 0.403292 0.939693
v 0.353472 0.398659 0.971158
v 0.953097 0.672536 -0.168057
v 0.985011 0.676918 -0.173684
v 0.866025 0.403292 0.500000
v 0.895024 0.398659 0.516742
v 0.838139 0.672536 0.483900
v 0.866204 0.676918 0.500103
v 0.984808 0.403292 -0.173648
v 1.017784 0.398659 -0.179463
v 0.331007 0.672536 0.909434
v 0.342091 0.676918 0.939887
v 0.842302 -0.601229 0.486303
v 0.957830 -0.601229 -0.168891
v 0.989267 -0.605228 -0.174434
v 0.869947 -0.605228 0.502264
v -0.984808 -0.358673 -0.173648
v -0.642788 -0.358673 -0.766044
v -0.663885 -0.354711 -0.791187
v -1.017130 -0.354711 -0.179347
v 0.332651 -0.601229 0.913951
v 0.343569 -0.605228 0.943948
v 0.000000 -0.358673 -1.000000
v 0.642788 -0.358673 -0.766044
v 0.663885 -0.354711 -0.791187
v 0.000000 -0.354711 -1.032821
v -0.332651 -0.601229 0.913951
v -0.343569 -0.605228 0.943948
v 0.984808 -0.358673 -0.173648
v 1.017130 -0.354711 -0.179347
v -0.842302 -0.601229 0.486303
v -0.869947 -0.605228 0.502264
v 0.866025 -0.358673 0.500000
v 0.894449 -0.354711 0.516411
v 0.642788 0.403292 -0.766044
v 0.664311 0.398659 -0.791695
v -0.331007 0.672536 0.909434
v -0.342091 0.676918 0.939887
v 0.000000 0.403292 -1.000000
v -0.642788 0.403292 -0.766044
v -0.664311 0.398659 -0.791695
v 0.000000 0.398659 -1.033485
v -0.838139 0.672536 0.483900
v -0.866204 0.676918 0.500103
v -0.984808 0.403292 -0.173648
v -1.017784 0.398659 -0.179463
v -0.953097 0.672536 -0.168057
v -0.985011 0.676918 -0.173684
v -0.957830 -0.601229 -0.168891
v -0.989267 -0.605228 -0.174434
v 0.342020 -0.358673 0.939693
v 0.353245 -0.354711 0.970534
v -0.625180 -0.601229 -0.745060
v -0.645698 -0.605228 -0.769513
v -0.342020 -0.358673 0.939693
v -0.353246 -0.354711 0.970534
v 0.625179 -0.601229 -0.745060
v 0.000000 -0.601229 -0.972606
v 0.000000 -0.605228 -1.004528
v 0.645698 -0.605228 -0.769513
v -0.866025 -0.358673 0.500000
v -0.894449 -0.354711 0.516410
v -0.573387 0.962874 -0.683336
v -0.878480 0.962874 -0.154900
v -0.666625 0.962874 -0.117544
v -0.435109 0.962874 -0.518542
v -0.305093 -0.962874 0.838236
v -0.772522 -0.962874 0.446016
v -0.554342 -0.962874 0.320049
v -0.218927 -0.962874 0.601496
v -0.772522 0.962874 0.446016
v -0.586220 0.962874 0.338454
v -0.305093 0.962874 0.838236
v -0.231517 0.962874 0.636086
v 0.305093 0.962874 0.838236
v 0.231516 0.962874 0.636086
v 0.772522 0.962874 0.446016
v 0.586220 0.962874 0.338455
v 0.573387 0.962874 -0.683336
v 0.000000 0.962874 -0.892032
v 0.000000 0.962874 -0.676909
v 0.435109 0.962874 -0.518542
v 0.878480 0.962874 -0.154900
v 0.666625 0.962874 -0.117544
v 0.305093 -0.962874 0.838236
v 0.218926 -0.962874 0.601496
v 0.772522 -0.962874 0.446016
v 0.554341 -0.962874 0.320049
v 0.000000 -0.962874 -0.892032
v 0.573387 -0.962874 -0.683336
v 0.411447 -0.962874 -0.490344
v 0.000000 -0.962874 -0.640098
v 0.878480 -0.962874 -0.154900
v 0.630374 -0.962874 -0.111152
v -0.573387 -0.962874 -0.683336
v -0.411447 -0.962874 -0.490344
v -0.878480 -0.962874 -0.154900
v -0.630374 -0.962874 -0.111152
v 0.435109 0.873272 -0.518542
v 0.000000 0.873272 -0.676909
v -0.435109 0.873272 -0.518542
v -0.666625 0.873272 -0.117544
v -0.586220 0.873272 0.338454
v -0.231517 0.873272 0.636086
v 0.231516 0.873272 0.636086
v 0.586220 0.873272 0.338455
v 0.666625 0.873272 -0.117544
v 0.000000 -0.883162 -0.640098
v 0.411447 -0.883162 -0.490344
v 0.630374 -0.883162 -0.111152
v 0.554341 -0.883162 0.320049
v 0.218926 -0.883162 0.601496
v -0.218927 -0.883162 0.601496
v -0.554342 -0.883162 0.320049
v -0.630374 -0.883162 -0.111152
v -0.411447 -0.883162 -0.490344
v -0.664311 0.549398 -0.791695
v 0.000000 0.549398 -1.033485
v -1.017784 0.549398 -0.179463
v -0.895024 0.549398 0.516742
v -0.353473 0.549398 0.971158
v 0.353472 0.549398 0.971158
v 0.895024 0.549398 0.516742
v 1.017784 0.549398 -0.179463
v 0.664311 0.549398 -0.791695
v 0.000000 -0.478242 -1.032821
v 0.663885 -0.478242 -0.791187
v 1.017130 -0.478242 -0.179347
v 0.894449 -0.478242 0.516411
v 0.353245 -0.478242 0.970534
v -0.353246 -0.478242 0.970534
v -0.894449 -0.478242 0.516410
v -1.017130 -0.478242 -0.179347
v -0.663885 -0.478242 -0.791187
vt 0.161931 0.637929
vt 0.418089 0.649151
vt 0.157735 0.649633
vt 0.412524 0.759060
vt 0.164631 0.747820
vt 0.416602 0.747744
vt 0.167161 0.759931
vt 0.414991 0.747378
vt 0.410965 0.758713
vt 0.162196 0.639122
vt 0.418333 0.650817
vt 0.157978 0.650817
vt 0.411812 0.755933
vt 0.163845 0.746445
vt 0.415810 0.744589
vt 0.413354 0.636936
vt 0.157217 0.648632
vt 0.161434 0.636936
vt 0.165655 0.758161
vt 0.413496 0.745843
vt 0.409460 0.757174
vt 0.413033 0.637712
vt 0.156945 0.650444
vt 0.161115 0.638732
vt 0.165491 0.756382
vt 0.413380 0.745068
vt 0.409298 0.756382
vt 0.163072 0.269614
vt 0.412154 0.279737
vt 0.159096 0.280761
vt 0.163024 0.378918
vt 0.419077 0.367479
vt 0.414943 0.378918
vt 0.164884 0.267830
vt 0.413924 0.278960
vt 0.160864 0.278961
vt 0.416465 0.379641
vt 0.160408 0.368280
vt 0.420595 0.368201
vt 0.161209 0.380538
vt 0.417202 0.367820
vt 0.413125 0.379279
vt 0.410664 0.270015
vt 0.161625 0.281146
vt 0.165646 0.270015
vt 0.413073 0.376495
vt 0.156943 0.366943
vt 0.417123 0.365027
vt 0.409717 0.268364
vt 0.160699 0.279956
vt 0.164699 0.268818
vt 0.160063 0.378762
vt 0.416068 0.366288
vt 0.411980 0.377743
vt 0.414987 0.636460
vt 0.158943 0.650041
vt 0.163075 0.638315
vt 0.166252 0.758568
vt 0.414141 0.747253
vt 0.410059 0.758568
vt 0.162508 0.640506
vt 0.418701 0.650922
vt 0.158349 0.652223
vt 0.416544 0.639612
vt 0.160410 0.651385
vt 0.164624 0.639689
vt 0.410015 0.756918
vt 0.162105 0.746062
vt 0.414076 0.745596
vt 0.163024 0.638889
vt 0.419161 0.650585
vt 0.158807 0.650585
vt 0.410678 0.759145
vt 0.163084 0.747788
vt 0.167134 0.759091
vt 0.415013 0.639828
vt 0.159126 0.651454
vt 0.419198 0.651512
vt 0.167080 0.758336
vt 0.414969 0.747021
vt 0.410887 0.758336
vt 0.167691 0.271063
vt 0.416434 0.282238
vt 0.412444 0.271118
vt 0.161434 0.376965
vt 0.417488 0.365526
vt 0.413353 0.376965
vt 0.411493 0.269782
vt 0.162454 0.280914
vt 0.166474 0.269783
vt 0.162195 0.379150
vt 0.418249 0.367711
vt 0.414115 0.379150
vt 0.167963 0.270581
vt 0.417005 0.281636
vt 0.163945 0.281713
vt 0.164114 0.271387
vt 0.413206 0.281273
vt 0.160149 0.282538
vt 0.161451 0.377959
vt 0.417483 0.366047
vt 0.413369 0.377493
vt 0.163807 0.269193
vt 0.412922 0.278490
vt 0.159869 0.280353
vt 0.415631 0.380137
vt 0.159882 0.368653
vt 0.163985 0.380080
vt 0.401343 0.860806
vt 0.203720 0.935254
vt 0.176624 0.860806
vt 0.174614 0.142300
vt 0.367439 0.054755
vt 0.399334 0.141883
vt 0.176423 0.861453
vt 0.373656 0.935866
vt 0.400900 0.861504
vt 0.175941 0.859821
vt 0.373701 0.933904
vt 0.203175 0.934219
vt 0.175795 0.861038
vt 0.373419 0.935486
vt 0.202892 0.935486
vt 0.175034 0.858853
vt 0.372657 0.933301
vt 0.202131 0.933301
vt 0.178291 0.861601
vt 0.375937 0.935989
vt 0.205411 0.936041
vt 0.175613 0.860592
vt 0.373536 0.934240
vt 0.203011 0.934930
vt 0.178309 0.860126
vt 0.376475 0.933117
vt 0.205953 0.934373
vt 0.401933 0.861230
vt 0.204685 0.936664
vt 0.177216 0.862353
vt 0.175795 0.143515
vt 0.368781 0.056328
vt 0.400515 0.143515
vt 0.175033 0.141330
vt 0.368020 0.054143
vt 0.399753 0.141329
vt 0.402793 0.144010
vt 0.209780 0.056882
vt 0.371033 0.056832
vt 0.172709 0.143075
vt 0.365341 0.055107
vt 0.397427 0.142165
vt 0.397739 0.140967
vt 0.204115 0.055204
vt 0.365364 0.054017
vt 0.173631 0.144838
vt 0.366180 0.056688
vt 0.398348 0.143715
vt 0.176623 0.143283
vt 0.369609 0.056096
vt 0.401343 0.143283
vt 0.402607 0.144752
vt 0.210037 0.057616
vt 0.178130 0.144702
vt 0.908546 0.329147
vt 0.930251 0.481090
vt 0.703345 0.659198
vt 0.488482 0.468633
vt 0.638415 0.221329
vt 0.907997 0.326040
vt 0.418958 0.702351
vt 0.419161 0.702015
vt 0.159003 0.702829
vt 0.418184 0.700581
vt 0.418333 0.702247
vt 0.417571 0.700061
vt 0.417571 0.648631
vt 0.417506 0.700820
vt 0.417298 0.649390
vt 0.419670 0.699552
vt 0.419291 0.648124
vt 0.420780 0.702736
vt 0.420765 0.651306
vt 0.158606 0.703652
vt 0.158807 0.702014
vt 0.414782 0.747844
vt 0.419076 0.702887
vt 0.157830 0.701063
vt 0.162170 0.747253
vt 0.157978 0.702247
vt 0.161409 0.745068
vt 0.157217 0.700061
vt 0.157153 0.701874
vt 0.159322 0.701470
vt 0.160426 0.702815
vt 0.420582 0.326054
vt 0.416812 0.322881
vt 0.415898 0.324141
vt 0.417487 0.323379
vt 0.418249 0.325564
vt 0.414685 0.281146
vt 0.417405 0.323900
vt 0.413759 0.279488
vt 0.159983 0.326551
vt 0.163648 0.282181
vt 0.419077 0.325332
vt 0.415514 0.280914
vt 0.156807 0.326974
vt 0.416992 0.325674
vt 0.158890 0.325332
vt 0.419889 0.326609
vt 0.157218 0.324381
vt 0.158061 0.325565
vt 0.157300 0.323379
vt 0.155712 0.325194
vt 0.156632 0.324797
vt 0.160395 0.326133
vt 0.168717 0.759134
vt 0.403023 0.858471
vt 0.168010 0.757729
vt 0.400332 0.859682
vt 0.399754 0.858853
vt 0.400515 0.861038
vt 0.166208 0.757368
vt 0.202892 0.966057
vt 0.206766 0.054143
vt 0.368020 0.026946
vt 0.206178 0.964943
vt 0.375209 0.935812
vt 0.204837 0.967235
vt 0.203232 0.964790
vt 0.203135 0.965501
vt 0.203314 0.935827
vt 0.373583 0.966404
vt 0.202131 0.963872
vt 0.205420 0.966612
vt 0.374247 0.935254
vt 0.203720 0.965825
vt 0.371025 0.029636
vt 0.208356 0.056096
vt 0.369609 0.028899
vt 0.207528 0.056328
vt 0.368781 0.029132
vt 0.365164 0.026821
vt 0.204929 0.057494
vt 0.366044 0.029492
vt 0.206186 0.055054
vt 0.367389 0.027559
vt 0.204089 0.055760
vt 0.365231 0.027911
vt 0.371115 0.057652
vt 0.210102 0.030448
vt 0.164545 0.379717
vt 0.161161 0.378350
vt 0.414115 0.639121
vt 0.413850 0.637464
vt 0.163367 0.639772
vt 0.414943 0.638889
vt 0.414425 0.639247
vt 0.408088 0.268623
vt 0.173025 0.142622
vt 0.178073 0.144078
vt 0.163023 0.748637
vt 0.161527 0.746863
vt 0.158890 0.367479
vt 0.409903 0.267829
vt 0.157018 0.369120
vt 0.155883 0.367341
vt 0.162998 0.747021
vt 0.157300 0.365526
vt 0.158061 0.367712
vt 0.412981 0.270506
vt 0.409130 0.270162
vt 0.157296 0.366528
vt 0.408819 0.267389
vt 0.419788 0.368711
vt 0.400660 0.859406
vt 0.403012 0.861533
vt 0.849211 0.611438
vt 0.560905 0.602023
vt 0.488541 0.466667
vt 0.520113 0.316463
vt 0.640847 0.221694
vt 0.794252 0.226703
vt 0.931467 0.478122
vt 0.851689 0.609710
vt 0.705993 0.659232
vt 0.562551 0.603516
vt 0.518443 0.317696
vt 0.792262 0.224625
vt 0.373419 0.966058
vt 0.206766 0.026946
vt 0.376701 0.963687
vt 0.375361 0.966383
vt 0.373758 0.964475
vt 0.373660 0.964810
vt 0.203241 0.966366
vt 0.372657 0.963872
vt 0.375946 0.966560
vt 0.374247 0.965825
vt 0.209772 0.029685
vt 0.208356 0.028899
vt 0.207528 0.029131
vt 0.203915 0.028008
vt 0.204793 0.030297
vt 0.206136 0.027857
vt 0.203979 0.028563
vt 0.371180 0.030484
vn 0.0936 -0.9893 -0.1116
vn -0.0487 0.9898 0.1338
vn 0.0487 0.9898 0.1338
vn 0.0000 -0.9893 -0.1457
vn -0.1234 0.9898 0.0712
vn -0.1233 0.9898 0.0712
vn -0.0936 -0.9893 -0.1116
vn -0.1403 0.9898 -0.0247
vn -0.1435 -0.9893 -0.0253
vn -0.0915 0.9898 -0.1091
vn -0.0916 0.9898 -0.1091
vn -0.1301 -0.9912 -0.0229
vn 0.1103 0.9918 0.0637
vn -0.0849 -0.9912 -0.1012
vn -0.0436 0.9918 0.1197
vn 0.0436 0.9918 0.1197
vn 0.0000 -0.9912 -0.1321
vn -0.1103 0.9918 0.0637
vn 0.0849 -0.9912 -0.1012
vn -0.1255 0.9918 -0.0221
vn -0.1262 -0.9893 0.0728
vn 0.0000 0.9898 -0.1424
vn 0.0498 -0.9893 0.1369
vn -0.0498 -0.9893 0.1369
vn 0.0915 0.9898 -0.1091
vn 0.0916 0.9898 -0.1091
vn 0.1262 -0.9893 0.0728
vn 0.1403 0.9898 -0.0247
vn 0.1435 -0.9893 -0.0253
vn 0.1234 0.9898 0.0712
vn 0.1233 0.9898 0.0712
vn 0.1301 -0.9912 -0.0229
vn -0.0819 0.9918 -0.0976
vn 0.1144 -0.9912 0.0661
vn 0.0000 0.9918 -0.1274
vn -0.0452 -0.9912 0.1242
vn 0.0452 -0.9912 0.1242
vn 0.0819 0.9918 -0.0976
vn -0.1144 -0.9912 0.0661
vn 0.1255 0.9918 -0.0221
vn -0.0000 1.0000 0.0000
vn -0.0000 -1.0000 -0.0000
vn -0.3348 -0.2049 -0.9198
vn -0.8476 -0.2049 -0.4894
vn -0.9639 -0.2049 0.1700
vn -0.3420 0.0000 -0.9397
vn -0.8660 0.0000 -0.5000
vn -0.9848 0.0000 0.1736
vn -0.6428 -0.0000 0.7660
vn 0.0000 -0.0000 1.0000
vn 0.6428 -0.0000 0.7660
vn 0.9848 -0.0000 0.1736
vn 0.8660 -0.0000 -0.5000
vn 0.3420 0.0000 -0.9397
vn -0.3322 0.2382 -0.9127
vn -0.8411 0.2382 -0.4856
vn -0.9565 0.2382 0.1687
vn -0.6243 0.2382 0.7440
vn 0.0000 0.2382 0.9712
vn 0.6243 0.2382 0.7440
vn 0.9565 0.2382 0.1687
vn 0.8411 0.2382 -0.4856
vn 0.3322 0.2382 -0.9127
vn 0.3348 -0.2049 -0.9198
vn 0.3348 -0.2049 -0.9197
vn 0.8476 -0.2049 -0.4894
vn 0.9639 -0.2049 0.1700
vn 0.6291 -0.2049 0.7498
vn 0.0000 -0.2049 0.9788
vn -0.6291 -0.2049 0.7498
vn -0.3348 -0.2049 -0.9197
vn 0.0000 0.0000 -1.0000
vn -0.6428 0.0000 -0.7660
vn -0.8660 0.0000 0.5000
vn 0.3420 -0.0000 0.9397
vn 0.6428 0.0000 -0.7660
vn -0.9848 0.0000 -0.1736
vn 0.9848 0.0000 -0.1736
vn -0.3420 -0.0000 0.9397
vn 0.8660 -0.0000 0.5000
s 1
f 1/1/1 3/2/1 4/3/1
f 5/4/2 7/5/2 8/6/2
f 5/7/3 10/8/3 9/9/3
f 2/10/4 12/11/4 3/12/4
f 6/13/5 14/14/6 7/15/5
f 15/16/7 12/17/7 11/18/7
f 17/19/8 14/20/8 13/21/8
f 19/22/9 16/23/9 15/24/9
f 21/25/10 18/26/11 17/27/11
f 23/28/12 25/29/12 26/30/12
f 28/31/13 30/32/13 27/33/13
f 31/34/14 26/35/14 32/36/14
f 33/37/15 35/38/15 36/39/15
f 33/40/16 29/41/16 28/42/16
f 31/43/17 38/44/17 37/45/17
f 34/46/18 40/47/18 35/48/18
f 37/49/19 42/50/19 41/51/19
f 43/52/20 40/53/20 39/54/20
f 45/55/21 20/56/21 19/57/21
f 47/58/22 22/59/22 21/60/22
f 49/61/23 51/62/23 52/63/23
f 49/64/24 46/65/24 45/66/24
f 47/67/25 54/68/26 48/69/25
f 50/70/27 56/71/27 51/72/27
f 57/73/28 54/74/28 53/75/28
f 55/76/29 4/77/29 56/78/29
f 9/79/30 58/80/31 57/81/31
f 41/82/32 60/83/32 59/84/32
f 61/85/33 44/86/33 43/87/33
f 59/88/34 64/89/34 63/90/34
f 65/91/35 62/92/35 61/93/35
f 67/94/36 69/95/36 70/96/36
f 68/97/37 64/98/37 69/99/37
f 71/100/38 66/101/38 65/102/38
f 24/103/39 70/104/39 25/105/39
f 27/106/40 72/107/40 71/108/40
f 74/109/41 76/110/41 73/111/41
f 78/112/42 80/113/42 77/114/42
f 81/115/41 75/116/41 74/117/41
f 81/118/41 84/119/41 82/120/41
f 83/121/41 86/122/41 84/123/41
f 85/124/41 88/125/41 86/126/41
f 89/127/41 91/128/41 92/129/41
f 87/130/41 94/131/41 88/132/41
f 93/133/41 92/134/41 94/135/41
f 73/136/41 91/137/41 90/138/41
f 77/139/42 96/140/42 95/141/42
f 95/142/42 98/143/42 97/144/42
f 99/145/42 101/146/42 102/147/42
f 97/148/42 104/149/42 103/150/42
f 100/151/42 104/152/42 101/153/42
f 99/154/42 106/155/42 105/156/42
f 105/157/42 108/158/42 107/159/42
f 107/160/42 79/161/42 78/162/42
f 105/156/43 68/97/43 99/154/43
f 107/159/44 63/90/44 105/157/44
f 78/162/45 59/84/45 107/160/45
f 116/163/41 117/164/41 110/165/41
f 121/166/42 123/167/42 125/168/42
f 127/169/46 52/63/46 51/62/46
f 129/170/47 51/72/47 56/71/47
f 130/171/48 56/78/48 4/77/48
f 131/172/49 4/3/49 3/2/49
f 132/173/50 3/12/50 12/11/50
f 133/174/51 12/17/51 16/175/51
f 134/176/52 16/23/52 20/177/52
f 135/178/53 20/56/53 46/179/53
f 128/180/54 46/65/54 52/181/54
f 10/8/55 128/182/55 127/169/55
f 58/80/56 127/183/56 129/170/56
f 130/171/57 58/184/57 129/185/57
f 131/172/58 54/68/58 130/186/58
f 132/173/59 48/187/59 131/188/59
f 133/174/60 22/189/60 132/190/60
f 14/20/61 133/191/61 134/176/61
f 135/178/62 14/14/62 134/192/62
f 128/180/63 7/5/63 135/193/63
f 136/194/64 70/96/65 69/95/64
f 137/195/66 25/105/66 70/104/66
f 138/196/67 26/30/67 25/29/67
f 139/197/68 32/36/68 26/35/68
f 140/198/69 38/44/69 32/199/69
f 141/200/70 42/50/70 38/201/70
f 142/202/45 60/83/45 42/203/45
f 143/204/44 64/89/44 60/205/44
f 64/98/71 136/206/43 69/99/43
f 29/41/46 136/206/46 144/207/46
f 30/32/47 144/208/47 143/204/47
f 72/107/48 143/209/48 142/202/48
f 66/101/49 142/210/49 141/200/49
f 62/92/50 141/211/50 140/198/50
f 44/86/51 140/212/51 139/197/51
f 40/53/52 139/213/52 138/196/52
f 35/48/53 138/214/53 137/195/53
f 36/39/54 137/215/54 136/194/54
f 5/4/63 89/127/63 6/216/63
f 89/217/62 13/218/62 6/13/62
f 93/219/61 17/19/61 13/21/61
f 87/220/60 21/25/60 17/27/60
f 85/221/59 47/58/59 21/60/59
f 47/67/58 81/118/58 53/222/58
f 53/75/57 74/117/57 57/73/57
f 57/81/56 73/111/56 9/79/56
f 73/136/55 5/7/55 9/9/55
f 86/122/72 114/223/72 84/123/72
f 96/224/73 121/225/73 98/143/73
f 92/134/74 117/226/74 94/135/74
f 76/227/75 110/228/75 91/137/75
f 84/119/76 113/229/76 82/120/76
f 94/131/77 116/230/77 88/132/77
f 82/231/78 112/232/78 75/116/78
f 88/125/73 115/233/73 86/126/73
f 91/128/79 109/234/79 92/129/79
f 75/235/80 111/236/80 76/110/80
f 101/146/79 118/237/79 102/147/79
f 106/238/80 125/239/80 108/158/80
f 80/240/72 122/241/72 96/140/72
f 104/152/74 119/242/74 101/153/74
f 102/243/75 126/244/75 106/155/75
f 79/245/76 123/246/76 80/113/76
f 98/247/77 120/248/77 104/149/77
f 108/249/78 124/250/78 79/161/78
f 49/64/54 34/251/54 33/37/54
f 45/55/53 39/252/53 34/46/53
f 19/22/52 43/52/52 39/54/52
f 15/16/51 61/85/51 43/87/51
f 11/253/50 65/91/50 61/93/50
f 2/254/49 71/100/49 65/102/49
f 1/255/48 27/106/48 71/108/48
f 55/256/47 28/31/47 27/33/47
f 50/257/46 33/40/46 28/42/46
f 37/49/70 78/112/70 77/114/70
f 31/43/69 77/139/69 95/141/69
f 97/144/68 31/34/68 95/142/68
f 24/258/67 97/148/67 103/150/67
f 100/151/66 24/103/66 103/259/66
f 99/145/64 67/94/64 100/260/64
f 1/1/1 2/254/1 3/2/1
f 5/4/2 6/216/2 7/5/2
f 5/7/3 8/261/3 10/8/3
f 2/10/4 11/253/4 12/11/4
f 6/13/5 13/218/6 14/14/6
f 15/16/7 16/175/7 12/17/7
f 17/19/8 18/262/8 14/20/8
f 19/22/9 20/177/9 16/23/9
f 21/25/10 22/189/10 18/26/11
f 23/28/12 24/258/12 25/29/12
f 28/31/13 29/263/13 30/32/13
f 31/34/14 23/264/14 26/35/14
f 33/37/15 34/251/15 35/38/15
f 33/40/16 36/265/16 29/41/16
f 31/43/17 32/199/17 38/44/17
f 34/46/18 39/252/18 40/47/18
f 37/49/19 38/201/19 42/50/19
f 43/52/20 44/266/20 40/53/20
f 45/55/21 46/179/21 20/56/21
f 47/58/22 48/187/22 22/59/22
f 49/61/23 50/257/23 51/62/23
f 49/64/24 52/181/24 46/65/24
f 47/67/25 53/222/26 54/68/26
f 50/70/27 55/256/27 56/71/27
f 57/73/28 58/184/28 54/74/28
f 55/76/29 1/255/29 4/77/29
f 9/79/30 10/267/30 58/80/31
f 41/82/32 42/203/32 60/83/32
f 61/85/33 62/268/33 44/86/33
f 59/88/34 60/205/34 64/89/34
f 65/91/35 66/269/35 62/92/35
f 67/94/36 68/270/36 69/95/36
f 68/97/37 63/271/37 64/98/37
f 71/100/38 72/272/38 66/101/38
f 24/103/39 67/273/39 70/104/39
f 27/106/40 30/274/40 72/107/40
f 74/109/41 75/235/41 76/110/41
f 78/112/42 79/245/42 80/113/42
f 81/115/41 82/231/41 75/116/41
f 81/118/41 83/275/41 84/119/41
f 83/121/41 85/221/41 86/122/41
f 85/124/41 87/220/41 88/125/41
f 89/127/41 90/276/41 91/128/41
f 87/130/41 93/219/41 94/131/41
f 93/133/41 89/217/41 92/134/41
f 73/136/41 76/227/41 91/137/41
f 77/139/42 80/240/42 96/140/42
f 95/142/42 96/224/42 98/143/42
f 99/145/42 100/260/42 101/146/42
f 97/148/42 98/247/42 104/149/42
f 100/151/42 103/259/42 104/152/42
f 99/154/42 102/243/42 106/155/42
f 105/157/42 106/238/42 108/158/42
f 107/160/42 108/249/42 79/161/42
f 105/156/43 63/271/43 68/97/43
f 107/159/44 59/88/44 63/90/44
f 78/162/45 41/82/45 59/84/45
f 117/164/41 109/277/41 110/165/41
f 110/165/41 111/278/41 112/279/41
f 112/279/41 113/280/41 110/165/41
f 113/280/41 114/281/41 110/165/41
f 114/281/41 115/282/41 110/165/41
f 115/282/41 116/163/41 110/165/41
f 126/283/42 118/284/42 125/168/42
f 118/284/42 119/285/42 125/168/42
f 119/285/42 120/286/42 121/166/42
f 121/166/42 122/287/42 123/167/42
f 123/167/42 124/288/42 125/168/42
f 119/285/42 121/166/42 125/168/42
f 127/169/46 128/182/46 52/63/46
f 129/170/47 127/183/47 51/72/47
f 130/171/48 129/185/48 56/78/48
f 131/172/49 130/186/49 4/3/49
f 132/173/50 131/188/50 3/12/50
f 133/174/51 132/190/51 12/17/51
f 134/176/52 133/191/52 16/23/52
f 135/178/53 134/192/53 20/56/53
f 128/180/54 135/193/54 46/65/54
f 10/8/55 8/261/55 128/182/55
f 58/80/56 10/267/56 127/183/56
f 130/171/57 54/74/57 58/184/57
f 131/172/58 48/69/58 54/68/58
f 132/173/59 22/59/59 48/187/59
f 133/174/60 18/26/60 22/189/60
f 14/20/61 18/262/61 133/191/61
f 135/178/62 7/15/62 14/14/62
f 128/180/63 8/6/63 7/5/63
f 136/194/64 137/215/65 70/96/65
f 137/195/66 138/214/66 25/105/66
f 138/196/67 139/213/67 26/30/67
f 139/197/68 140/212/68 32/36/68
f 140/198/69 141/211/69 38/44/69
f 141/200/70 142/210/70 42/50/70
f 142/202/45 143/209/45 60/83/45
f 143/204/44 144/208/44 64/89/44
f 64/98/71 144/207/71 136/206/43
f 29/41/46 36/265/46 136/206/46
f 30/32/47 29/263/47 144/208/47
f 72/107/48 30/274/48 143/209/48
f 66/101/49 72/272/49 142/210/49
f 62/92/50 66/269/50 141/211/50
f 44/86/51 62/268/51 140/212/51
f 40/53/52 44/266/52 139/213/52
f 35/48/53 40/47/53 138/214/53
f 36/39/54 35/38/54 137/215/54
f 5/4/63 90/276/63 89/127/63
f 89/217/62 93/133/62 13/218/62
f 93/219/61 87/130/61 17/19/61
f 87/220/60 85/124/60 21/25/60
f 85/221/59 83/121/59 47/58/59
f 47/67/58 83/275/58 81/118/58
f 53/75/57 81/115/57 74/117/57
f 57/81/56 74/109/56 73/111/56
f 73/136/55 90/138/55 5/7/55
f 86/122/72 115/289/72 114/223/72
f 96/224/73 122/290/73 121/225/73
f 92/134/74 109/291/74 117/226/74
f 76/227/75 111/292/75 110/228/75
f 84/119/76 114/293/76 113/229/76
f 94/131/77 117/294/77 116/230/77
f 82/231/78 113/295/78 112/232/78
f 88/125/73 116/296/73 115/233/73
f 91/128/79 110/297/79 109/234/79
f 75/235/80 112/298/80 111/236/80
f 101/146/79 119/299/79 118/237/79
f 106/238/80 126/300/80 125/239/80
f 80/240/72 123/301/72 122/241/72
f 104/152/74 120/302/74 119/242/74
f 102/243/75 118/303/75 126/244/75
f 79/245/76 124/304/76 123/246/76
f 98/247/77 121/305/77 120/248/77
f 108/249/78 125/306/78 124/250/78
f 49/64/54 45/66/54 34/251/54
f 45/55/53 19/57/53 39/252/53
f 19/22/52 15/24/52 43/52/52
f 15/16/51 11/18/51 61/85/51
f 11/253/50 2/10/50 65/91/50
f 2/254/49 1/1/49 71/100/49
f 1/255/48 55/76/48 27/106/48
f 55/256/47 50/70/47 28/31/47
f 50/257/46 49/61/46 33/40/46
f 37/49/70 41/51/70 78/112/70
f 31/43/69 37/45/69 77/139/69
f 97/144/68 23/264/68 31/34/68
f 24/258/67 23/28/67 97/148/67
f 100/151/66 67/273/66 24/103/66
f 99/145/64 68/270/64 67/94/64
